<svg xmlns="http://www.w3.org/2000/svg" width="1039" height="1009" viewBox="0 0 1039 1009">
<g>
<path d="M 627.50 882.02 C605.31,883.06 584.70,883.04 551.00,881.94 C502.56,880.36 471.01,874.12 412.71,854.58 C379.17,843.34 363.93,836.63 341.91,823.42 C315.40,807.51 276.02,775.48 255.90,753.46 C225.18,719.82 195.28,666.46 176.37,611.50 C168.01,587.20 160.70,553.83 157.96,527.50 C156.58,514.21 156.58,484.19 157.97,470.50 C164.07,410.32 180.39,344.38 198.06,308.50 C203.00,298.47 212.12,285.00 213.98,285.00 C214.63,285.00 214.89,311.95 214.73,362.75 C214.48,445.86 214.74,451.88 219.52,475.60 C223.70,496.38 231.02,514.28 242.37,531.50 C249.82,542.79 266.56,559.54 278.01,567.14 C309.73,588.22 347.64,598.33 418.00,604.47 C470.73,609.08 492.52,615.45 514.64,632.71 C547.37,658.25 557.70,665.13 578.16,674.96 C599.68,685.29 610.29,687.69 638.83,688.70 L 656.16 689.31 L 655.55 692.90 C652.00,713.45 619.26,742.80 593.48,748.54 C584.02,750.64 570.48,750.13 556.00,747.13 C544.80,744.81 526.99,742.63 524.35,743.25 C517.26,744.95 583.07,767.25 608.00,771.60 C621.23,773.90 651.35,773.93 663.19,771.64 C698.38,764.83 723.82,751.00 765.52,715.98 C796.42,690.04 806.48,683.98 819.88,683.23 C834.99,682.39 845.99,689.92 843.60,699.48 C843.25,700.84 840.47,704.76 837.41,708.19 C830.95,715.43 828.90,718.64 831.33,717.70 C837.43,715.36 850.00,713.73 862.50,713.66 C876.92,713.57 881.47,714.47 882.68,717.61 C883.72,720.32 877.66,731.04 870.98,738.30 C860.87,749.30 834.89,771.09 805.50,793.22 C797.80,799.02 790.60,804.79 789.50,806.03 L 787.50 808.30 L 791.09 807.74 C796.03,806.97 808.92,801.36 839.52,786.69 C853.83,779.83 867.51,773.63 869.92,772.91 L 874.30 771.59 L 877.15 775.01 C882.53,781.45 880.27,788.83 870.00,798.34 C855.38,811.88 815.22,834.84 782.00,848.67 C733.91,868.68 684.50,879.35 627.50,882.02 ZM 726.53 810.14 C724.67,811.89 724.67,812.00 726.38,812.00 C731.46,812.00 749.83,800.11 768.07,785.01 C778.35,776.50 808.52,745.31 816.45,735.00 C821.60,728.30 824.42,724.00 823.67,724.00 C823.36,724.00 817.79,728.80 811.30,734.66 C804.81,740.53 787.14,756.17 772.03,769.41 C748.60,789.96 735.87,801.36 726.53,810.14 Z" fill="rgb(0,150,72)"/>
<path d="M 785.75 1008.85 L 1039.00 1009.00 L 0.00 1009.00 L 254.25 1008.81 C392.07,1008.71 502.57,1008.50 502.57,1008.35 C502.57,1008.35 502.55,1008.35 502.50,1008.35 C422.09,1004.67 353.20,987.42 285.50,954.02 C230.00,926.63 186.07,894.57 141.48,848.90 C61.89,767.40 13.68,662.58 2.84,547.50 C1.14,529.37 1.14,479.63 2.84,461.50 C11.40,370.67 42.62,287.41 95.43,214.62 C183.92,92.63 322.33,15.26 474.81,2.53 C495.82,0.77 540.34,0.50 559.60,2.01 C645.31,8.71 721.11,32.75 792.99,76.03 C829.33,97.90 859.31,121.36 890.08,152.00 C917.66,179.46 937.27,203.28 957.18,233.50 C1002.89,302.88 1030.45,383.30 1036.99,466.40 C1038.49,485.47 1038.22,527.86 1036.47,548.00 C1022.69,706.63 931.40,850.24 791.00,934.17 C717.56,978.07 633.91,1003.36 547.00,1007.93 C546.72,1007.95 546.58,1007.96 546.58,1007.98 C546.58,1008.38 651.34,1008.77 785.75,1008.85 ZM 487.50 990.40 C497.95,991.40 560.24,990.11 572.50,988.63 C607.16,984.46 632.87,979.53 660.00,971.85 C718.71,955.23 775.05,927.56 823.50,891.55 C860.60,863.98 899.95,824.81 926.02,789.50 C979.46,717.12 1009.24,640.10 1019.20,548.50 C1020.94,532.50 1020.93,476.44 1019.19,460.50 C1010.93,384.94 990.35,322.52 952.93,259.50 C916.57,198.27 861.80,141.61 799.50,100.76 C729.99,55.20 653.22,28.53 566.50,19.83 C546.83,17.85 488.59,18.16 469.00,20.34 C392.21,28.88 327.88,49.44 264.86,85.56 C206.71,118.90 154.37,165.00 114.93,217.63 C62.62,287.43 31.60,365.00 21.40,451.50 C17.88,481.36 18.10,530.97 21.89,561.12 C35.53,669.67 82.63,765.65 160.47,843.54 C243.17,926.29 353.80,977.93 472.00,988.94 C478.33,989.53 485.30,990.19 487.50,990.40 ZM 933.40 483.11 C936.75,484.07 938.38,484.85 937.00,484.84 C934.06,484.82 926.94,482.90 922.00,480.80 C916.59,478.50 907.72,469.78 904.74,463.84 C897.78,450.00 897.10,433.12 903.02,421.45 C904.90,417.76 908.51,412.92 911.49,410.09 C916.48,405.38 932.08,396.53 934.18,397.23 C934.73,397.41 932.05,399.03 928.21,400.83 C907.77,410.42 899.66,427.90 904.58,451.74 C906.49,460.98 908.81,465.75 914.26,471.67 C919.36,477.20 925.44,480.83 933.40,483.11 ZM 892.50 358.83 C896.25,360.10 897.56,360.87 896.00,360.88 C889.81,360.95 879.02,355.10 873.26,348.56 C859.37,332.78 856.17,311.33 865.36,295.64 C869.60,288.41 884.05,275.54 892.29,271.66 C896.25,269.78 900.62,267.95 902.00,267.59 C903.38,267.22 901.23,268.49 897.23,270.41 C893.24,272.32 889.27,274.59 888.41,275.45 C887.56,276.30 886.47,277.00 885.99,277.00 C884.20,277.00 871.89,290.45 868.90,295.68 C862.38,307.08 861.56,316.28 865.95,328.90 C871.17,343.90 880.97,354.94 892.50,358.83 ZM 920.00 609.16 L 920.00 609.24 C920.00,609.51 920.00,609.71 919.90,609.80 C919.61,610.05 918.47,609.33 913.98,606.47 L 913.50 606.17 C903.09,599.55 897.18,590.76 894.92,578.51 C893.25,569.50 896.21,554.44 901.37,545.63 C906.22,537.36 916.89,529.38 925.50,527.59 C927.38,527.20 926.19,528.10 922.33,530.00 C910.67,535.74 903.64,545.15 899.95,559.96 C895.38,578.32 900.08,592.85 914.10,603.74 C917.35,606.26 920.00,608.70 920.00,609.16 ZM 828.51 271.36 C831.09,273.76 833.04,276.41 832.85,277.26 C832.60,278.36 830.72,277.19 826.24,273.15 L 819.98 267.50 L 822.91 254.00 C826.81,236.04 828.42,223.28 827.53,217.38 C826.89,213.10 825.92,211.65 818.91,204.46 C814.56,200.01 811.00,196.06 811.00,195.68 C811.00,191.79 829.42,209.61 830.52,214.56 C830.87,216.18 831.34,218.07 831.56,218.76 C832.09,220.49 830.36,234.05 828.59,242.00 C827.80,245.57 826.40,252.66 825.48,257.74 L 823.82 266.99 ZM 743.08 170.07 C741.54,171.68 739.69,173.00 738.95,173.00 C738.18,173.00 738.78,171.79 740.39,170.11 C744.01,166.33 744.84,160.57 742.47,155.58 C741.50,153.54 737.08,148.64 732.63,144.69 C708.53,123.25 704.00,117.36 704.00,107.50 C704.00,99.15 708.71,91.21 716.50,86.42 C718.86,84.97 718.40,85.77 714.34,90.13 C706.28,98.81 704.92,107.17 709.89,117.50 C712.94,123.85 716.60,127.69 731.68,140.40 C741.60,148.76 745.52,153.22 746.56,157.37 C747.60,161.53 746.14,166.88 743.08,170.07 ZM 981.59 476.62 C980.55,479.33 979.14,477.91 976.78,471.75 L 974.38 465.50 L 977.44 463.65 C988.78,456.80 993.50,446.60 990.99,434.40 C989.19,425.69 985.70,419.60 979.90,415.02 C977.11,412.81 974.52,410.98 974.16,410.96 C973.80,410.93 971.25,410.29 968.50,409.52 C964.09,408.30 963.88,408.13 966.71,408.07 C972.75,407.94 981.14,411.89 986.56,417.41 C992.57,423.53 995.04,430.69 994.92,441.57 C994.82,450.41 991.72,455.99 984.20,460.88 C978.55,464.56 978.15,465.73 980.56,471.49 C981.42,473.55 981.89,475.86 981.59,476.62 ZM 949.64 332.15 C952.29,334.86 953.09,336.31 952.34,337.06 C951.60,337.80 949.94,336.71 946.74,333.37 L 942.19 328.63 L 946.35 322.74 C950.40,316.98 950.50,316.66 950.48,308.67 C950.46,299.63 948.80,295.27 942.74,288.35 C938.92,283.99 931.47,279.03 928.55,278.92 C927.42,278.88 927.07,278.61 927.77,278.33 C930.71,277.15 939.96,281.29 944.63,285.87 C956.61,297.65 958.17,313.69 948.44,325.25 L 945.88 328.29 ZM 973.50 600.58 C967.38,602.71 967.07,602.27 972.69,599.47 C977.99,596.83 981.65,592.53 984.56,585.53 C986.80,580.14 986.83,566.84 984.60,561.55 C980.95,552.88 976.87,549.41 963.13,543.28 C957.89,540.95 956.60,540.08 959.00,540.51 C964.13,541.43 978.01,548.32 981.67,551.76 C988.77,558.43 992.07,569.50 989.98,579.63 C987.73,590.55 982.23,597.54 973.50,600.58 ZM 873.10 206.61 C872.05,208.32 869.69,210.76 867.85,212.03 L 864.50 214.34 L 867.42 211.19 C869.70,208.73 870.43,206.86 870.78,202.58 C871.49,194.14 869.00,190.18 854.41,176.48 C846.12,168.69 842.22,164.38 842.88,163.72 C843.93,162.67 864.13,180.84 869.92,188.06 C875.41,194.88 876.47,201.08 873.10,206.61 ZM 720.50 185.52 C724.32,186.48 724.79,186.78 722.50,186.79 C715.05,186.82 701.57,180.28 693.29,172.61 C682.95,163.03 679.05,151.23 682.41,139.68 C683.34,136.46 684.63,134.00 685.38,134.00 C686.48,134.00 686.47,134.90 685.35,139.22 C683.53,146.25 683.65,149.65 685.97,157.14 C689.82,169.54 704.30,181.44 720.50,185.52 ZM 776.24 220.74 C782.13,226.74 779.93,228.09 773.53,222.41 L 768.56 218.00 L 774.09 212.25 C808.93,176.02 838.40,146.07 838.82,146.49 C839.10,146.77 834.37,152.06 828.31,158.25 C822.24,164.44 807.11,180.07 794.68,193.00 L 772.07 216.50 ZM 770.99 130.25 C771.00,131.31 770.17,131.13 764.23,128.79 C760.38,127.28 759.08,126.28 759.40,125.11 C761.19,118.72 761.09,114.82 759.04,110.58 C756.59,105.51 752.35,101.96 744.42,98.34 C741.37,96.94 739.07,95.59 739.32,95.35 C740.38,94.29 751.57,99.22 755.61,102.54 C761.79,107.60 763.37,111.08 763.27,119.36 L 763.18 126.23 L 767.08 127.86 C769.22,128.76 770.98,129.84 770.99,130.25 ZM 964.14 610.13 C964.48,616.10 964.36,616.52 962.25,616.82 C960.10,617.12 960.00,616.83 960.00,610.18 C960.00,602.99 960.60,601.98 964.83,602.02 C966.15,602.03 966.22,602.21 965.14,602.89 C964.16,603.51 963.88,605.53 964.14,610.13 ZM 857.93 227.99 L 862.50 228.76 L 857.50 228.87 C852.29,228.98 842.00,225.12 842.00,223.05 C842.00,221.57 842.44,221.68 848.21,224.61 C851.05,226.04 855.42,227.57 857.93,227.99 Z" fill="rgb(47,45,43)"/>
<path d="M 758.49 699.49 C750.03,701.28 729.54,701.34 722.50,699.59 C715.03,697.74 709.11,694.39 703.18,688.65 C694.36,680.11 683.00,660.25 673.99,637.58 C671.60,631.58 668.35,625.19 666.76,623.38 C663.07,619.18 656.83,616.88 640.00,613.53 C607.94,607.16 590.71,602.23 579.87,596.33 C574.04,593.16 565.33,584.27 566.70,582.90 C569.56,580.04 582.30,578.83 618.00,578.03 C657.73,577.14 660.48,576.78 672.26,570.91 C686.23,563.94 691.45,554.52 688.96,540.75 C687.50,532.72 683.33,523.76 672.71,505.88 C663.00,489.52 661.94,487.00 664.75,487.00 C669.19,487.00 677.13,490.31 683.63,494.88 C696.66,504.02 711.07,523.90 715.98,539.50 C716.68,541.70 718.58,547.01 720.21,551.29 L 723.18 559.08 L 756.84 558.94 L 759.11 558.93 C781.01,558.83 789.47,558.79 797.41,560.79 C802.68,562.12 807.73,564.34 816.31,568.04 C830.06,573.95 841.30,577.55 842.92,576.55 C845.89,574.71 837.25,554.43 827.65,540.71 C811.96,518.29 783.76,489.43 755.50,466.85 C736.42,451.61 723.97,443.73 703.50,433.94 C673.75,419.71 653.91,414.57 615.00,410.98 C594.26,409.07 585.94,406.68 584.04,402.10 C583.16,399.97 583.26,397.09 584.50,389.28 C586.67,375.64 587.12,321.16 585.15,309.50 C580.01,278.93 562.66,248.22 536.18,222.85 C516.40,203.89 496.51,192.09 475.00,186.56 C456.99,181.92 419.12,182.46 401.11,187.61 C377.75,194.28 352.63,211.11 327.96,236.61 C306.48,258.80 292.52,280.72 284.40,305.01 L 281.56 313.50 L 281.53 341.50 L 281.50 369.50 L 284.87 379.50 C293.77,405.88 311.45,432.34 332.78,451.21 C343.27,460.48 353.20,466.36 363.11,469.17 C372.95,471.95 384.57,471.31 399.00,467.19 C414.31,462.82 415.00,462.70 415.00,464.48 C415.00,467.73 407.88,473.67 397.00,479.50 C377.89,489.74 374.95,495.70 383.03,507.81 C393.55,523.57 427.09,546.90 446.00,551.63 C463.98,556.12 488.45,548.78 510.50,532.28 C515.45,528.57 529.69,515.56 542.14,503.35 C563.02,482.89 573.78,474.13 576.19,475.62 C577.95,476.70 572.32,491.39 566.34,501.33 C547.51,532.63 514.67,560.19 481.54,572.49 C454.16,582.66 424.56,582.66 398.89,572.49 C376.31,563.55 363.51,552.90 355.02,536.01 C351.44,528.89 345.00,511.64 345.00,509.18 C345.00,508.13 343.43,504.13 341.51,500.29 C337.11,491.50 331.24,486.71 312.83,476.88 C297.80,468.85 296.21,467.84 286.66,460.14 C265.59,443.15 245.77,407.15 237.58,371.00 C231.96,346.17 230.87,314.43 234.87,291.74 C242.99,245.64 271.84,201.20 312.81,171.70 C331.54,158.21 356.65,145.23 377.50,138.25 C409.74,127.45 459.19,123.05 487.46,128.46 C526.77,135.98 563.05,163.76 588.01,205.44 C608.43,239.53 617.18,281.64 612.97,325.50 C612.44,331.00 611.72,340.74 611.36,347.14 L 610.71 358.78 L 613.60 359.33 C615.20,359.64 619.88,360.41 624.00,361.05 C641.55,363.76 667.04,370.17 686.00,376.64 C713.82,386.14 748.40,402.05 763.89,412.46 C791.18,430.81 817.09,460.40 832.29,490.58 C836.66,499.26 851.55,535.83 856.35,549.65 C860.82,562.57 865.00,582.76 865.00,591.49 L 865.00 598.25 L 856.75 597.77 C849.62,597.35 846.60,596.51 834.50,591.57 C781.93,570.12 730.59,579.90 713.11,614.72 C709.37,622.16 708.00,629.69 708.00,642.75 C708.00,657.12 709.11,660.29 716.41,666.72 C727.87,676.80 738.56,679.97 761.00,679.96 C778.98,679.95 782.21,679.37 794.87,673.86 C805.57,669.20 812.00,667.85 812.00,670.25 C812.00,671.09 809.12,674.47 805.60,677.76 C795.94,686.79 776.85,695.60 758.49,699.49 ZM 828.51 271.36 L 823.82 266.99 L 825.48 257.74 C826.40,252.66 827.80,245.57 828.59,242.00 C830.36,234.05 832.09,220.49 831.56,218.76 C831.34,218.07 830.87,216.18 830.52,214.56 C829.42,209.61 811.00,191.79 811.00,195.68 C811.00,196.03 814.09,199.49 818.04,203.57 C815.83,201.42 813.75,199.54 812.70,198.79 L 809.91 196.80 L 795.98 211.27 C788.32,219.24 781.24,225.97 780.25,226.23 C779.79,226.34 779.14,226.20 778.32,225.81 C780.50,226.71 780.20,224.78 776.24,220.74 L 772.07 216.50 L 794.68 193.00 C807.11,180.07 822.24,164.44 828.31,158.25 C834.37,152.06 839.10,146.77 838.82,146.49 C838.40,146.07 808.93,176.02 774.09,212.25 L 768.56 218.00 L 774.53 211.75 C777.81,208.32 787.48,198.30 796.02,189.50 C804.55,180.70 817.44,167.18 824.66,159.45 C834.93,148.47 838.34,145.41 840.30,145.45 C842.18,145.49 847.78,150.38 862.69,165.00 C885.19,187.06 888.45,191.63 888.42,201.00 C888.35,220.45 866.08,234.88 848.29,227.01 C848.04,226.90 847.79,226.79 847.55,226.69 C850.82,227.94 854.83,228.93 857.50,228.87 L 862.50 228.76 L 857.93 227.99 C855.42,227.57 851.05,226.04 848.21,224.61 C842.44,221.68 842.00,221.57 842.00,223.05 C842.00,223.75 843.20,224.67 845.00,225.57 C844.18,225.22 843.66,225.00 843.62,225.00 C843.56,225.00 843.42,228.71 843.33,233.25 C843.23,238.07 841.68,248.91 839.58,259.33 C837.61,269.14 836.00,277.38 836.00,277.64 C836.00,277.90 835.50,277.81 834.89,277.43 C834.28,277.05 833.49,277.20 833.14,277.76 C833.03,277.93 832.70,277.87 832.18,277.62 C832.56,277.71 832.78,277.58 832.85,277.26 C833.04,276.41 831.09,273.76 828.51,271.36 ZM 743.08 170.07 C746.14,166.88 747.60,161.53 746.56,157.37 C745.52,153.22 741.60,148.76 731.68,140.40 C716.60,127.69 712.94,123.85 709.89,117.50 C704.92,107.17 706.28,98.81 714.34,90.13 C718.40,85.77 718.86,84.97 716.50,86.42 C714.59,87.60 712.86,88.96 711.34,90.48 C713.92,87.62 716.98,85.34 720.19,84.12 C729.25,80.67 742.47,82.01 753.64,87.50 C771.07,96.05 779.55,110.19 776.05,124.80 C775.07,128.87 773.83,130.62 770.96,130.55 C770.98,130.46 770.99,130.36 770.99,130.25 C770.98,129.84 769.22,128.76 767.08,127.86 L 763.18 126.23 L 763.27 119.36 C763.37,111.08 761.79,107.60 755.61,102.54 C751.57,99.22 740.38,94.29 739.32,95.35 C739.09,95.58 741.07,96.76 743.82,98.06 C742.58,97.54 741.27,97.04 739.87,96.55 C733.33,94.27 728.66,94.57 725.21,97.48 C720.84,101.15 719.44,105.20 720.88,110.00 C722.07,113.97 725.91,117.82 744.00,133.23 C748.12,136.74 753.29,142.20 755.47,145.36 C758.99,150.45 759.49,151.90 759.84,158.10 C760.33,166.77 758.41,172.30 752.99,177.89 C748.33,182.70 744.39,184.84 737.02,186.61 C726.74,189.07 718.25,187.71 706.35,181.69 C699.66,178.31 694.15,174.04 690.00,169.25 C691.02,170.40 692.11,171.52 693.29,172.61 C701.57,180.28 715.05,186.82 722.50,186.79 C724.79,186.78 724.32,186.48 720.50,185.52 C704.30,181.44 689.82,169.54 685.97,157.14 C683.65,149.65 683.53,146.25 685.35,139.22 C686.39,135.21 686.47,134.15 685.60,134.01 C687.24,133.13 689.63,133.64 693.68,135.15 C699.00,137.14 699.10,137.26 698.41,140.34 C695.43,153.61 701.77,164.23 716.95,171.38 C721.99,173.75 724.90,174.47 729.55,174.48 C735.12,174.50 735.90,174.22 739.37,170.95 C740.73,169.67 741.69,168.54 742.37,167.37 C741.85,168.36 741.19,169.28 740.39,170.11 C738.78,171.79 738.18,173.00 738.95,173.00 C739.69,173.00 741.54,171.68 743.08,170.07 ZM 892.50 358.83 C880.97,354.94 871.17,343.90 865.95,328.90 C861.56,316.28 862.38,307.08 868.90,295.68 C871.89,290.45 884.20,277.00 885.99,277.00 C886.47,277.00 887.56,276.30 888.41,275.45 C889.27,274.59 893.24,272.32 897.23,270.41 C901.23,268.49 903.38,267.22 902.00,267.59 C900.64,267.95 896.36,269.74 892.43,271.59 C919.32,257.12 949.17,264.31 962.52,291.34 C965.92,298.21 966.44,300.25 966.80,307.84 C967.28,318.13 965.24,325.18 959.50,333.00 C956.49,337.10 954.29,338.51 951.48,337.24 C951.85,337.33 952.13,337.27 952.34,337.06 C953.09,336.31 952.29,334.86 949.64,332.15 L 945.88 328.29 L 948.44 325.25 C958.17,313.69 956.61,297.65 944.63,285.87 C939.96,281.29 930.71,277.15 927.77,278.33 C927.07,278.61 927.42,278.88 928.55,278.92 C931.47,279.03 938.92,283.99 942.74,288.35 C945.82,291.87 947.77,294.73 948.94,297.87 C948.56,297.05 948.10,296.17 947.54,295.15 C943.81,288.42 936.07,281.39 930.66,279.82 C924.23,277.96 914.28,278.39 908.36,280.80 C895.54,286.00 882.59,296.68 878.40,305.50 C869.11,325.03 887.22,351.34 907.03,347.09 C916.15,345.13 916.37,345.23 918.25,352.24 C919.17,355.67 919.60,358.80 919.21,359.18 C918.82,359.57 915.58,360.36 912.00,360.93 C904.03,362.22 898.09,362.13 892.11,360.34 C893.53,360.70 894.84,360.90 896.00,360.88 C897.56,360.87 896.25,360.10 892.50,358.83 ZM 920.00 609.16 C920.00,608.70 917.35,606.26 914.10,603.74 C900.08,592.85 895.38,578.32 899.95,559.96 C903.64,545.15 910.67,535.74 922.33,530.00 C926.19,528.10 927.38,527.20 925.50,527.59 C923.42,528.02 921.22,528.82 919.01,529.89 C922.58,528.07 926.37,526.68 930.18,525.87 C937.79,524.23 956.92,525.43 965.59,528.08 C993.74,536.70 1006.34,557.24 1000.50,585.01 C998.76,593.27 995.26,599.77 989.36,605.68 C983.91,611.15 978.52,613.81 969.32,615.56 C965.20,616.35 961.41,617.00 960.91,617.00 C960.81,617.00 960.71,616.87 960.62,616.63 C960.95,616.96 961.46,616.93 962.25,616.82 C964.36,616.52 964.48,616.10 964.14,610.13 C963.88,605.53 964.16,603.51 965.14,602.89 C966.22,602.21 966.15,602.03 964.83,602.02 C964.46,602.01 964.12,602.02 963.80,602.03 L 967.60 600.91 C972.40,599.48 975.68,597.91 978.26,595.50 C976.62,597.12 974.78,598.42 972.69,599.47 C967.07,602.27 967.38,602.71 973.50,600.58 C982.23,597.54 987.73,590.55 989.98,579.63 C992.07,569.50 988.77,558.43 981.67,551.76 C978.01,548.32 964.13,541.43 959.00,540.51 C956.60,540.08 957.89,540.95 963.13,543.28 C964.41,543.86 965.62,544.41 966.74,544.94 C955.67,540.14 939.28,538.20 930.29,540.83 C923.52,542.80 917.91,547.78 914.25,555.04 C906.35,570.73 910.45,586.32 924.67,594.65 C927.05,596.05 929.00,597.61 929.00,598.13 C929.00,598.64 927.90,601.25 926.55,603.91 C924.49,607.96 922.80,609.64 920.00,609.19 ZM 933.40 483.11 C925.44,480.83 919.36,477.20 914.26,471.67 C908.81,465.75 906.49,460.98 904.58,451.74 C899.66,427.90 907.77,410.42 928.21,400.83 C932.05,399.03 934.73,397.41 934.18,397.23 C933.72,397.07 932.61,397.38 931.12,398.00 C932.53,397.40 933.99,396.83 935.50,396.28 C937.77,395.46 945.00,394.58 952.19,394.27 C972.46,393.39 982.08,396.24 992.67,406.25 C1006.27,419.11 1011.13,443.09 1003.27,458.52 C998.75,467.39 989.50,475.52 981.84,477.36 C981.58,477.42 981.35,477.47 981.14,477.51 C981.30,477.29 981.45,476.99 981.59,476.62 C981.89,475.86 981.42,473.55 980.56,471.49 C978.15,465.73 978.55,464.56 984.20,460.88 C991.72,455.99 994.82,450.41 994.92,441.57 C995.04,430.69 992.57,423.53 986.56,417.41 C981.14,411.89 972.75,407.94 966.71,408.07 C963.88,408.13 964.09,408.30 968.50,409.52 L 968.57 409.54 C961.89,408.05 953.05,407.94 945.74,409.38 C925.55,413.35 915.00,424.06 915.00,440.57 C915.00,444.46 915.71,449.72 916.58,452.27 C919.79,461.69 928.71,468.68 939.88,470.50 L 944.25 471.22 L 943.64 476.36 C943.30,479.19 943.01,482.29 943.01,483.25 C943.00,484.65 942.16,484.98 938.75,484.91 C938.21,484.90 937.68,484.87 937.14,484.84 C938.25,484.79 936.63,484.04 933.40,483.11 ZM 873.10 206.61 C876.47,201.08 875.41,194.88 869.92,188.06 C864.13,180.84 843.93,162.67 842.88,163.72 C842.29,164.31 845.38,167.86 852.06,174.25 L 841.20 164.02 L 831.12 174.87 L 821.03 185.73 L 831.77 196.26 C843.84,208.12 847.19,211.01 851.50,213.31 C853.15,214.20 856.26,214.94 858.42,214.96 C861.79,214.99 862.95,214.36 866.67,210.48 C868.67,208.39 869.77,207.11 870.35,205.78 C869.87,208.00 869.03,209.45 867.42,211.19 L 864.50 214.34 L 867.85 212.03 C869.69,210.76 872.05,208.32 873.10,206.61 ZM 490.65 423.07 C485.31,425.49 477.96,425.45 471.03,422.96 C462.55,419.91 462.10,419.01 466.54,414.09 C471.80,408.27 508.10,386.77 509.80,388.47 C510.77,389.44 508.26,399.76 505.69,405.33 C502.15,413.00 495.47,420.88 490.65,423.07 ZM 0.00 0.00 L 1039.00 0.00 L 786.75 0.17 C649.53,0.27 538.96,0.49 538.96,0.66 C538.96,0.66 538.97,0.66 539.00,0.67 C540.75,0.79 545.63,1.13 551.25,1.52 C531.96,0.70 501.13,0.92 481.60,2.06 L 482.00 2.03 C490.52,1.44 499.08,0.82 501.00,0.64 C501.02,0.64 501.02,0.64 501.02,0.64 C501.02,0.46 389.81,0.25 252.25,0.16 ZM 705.78 33.69 C743.00,47.55 778.43,65.63 811.52,87.69 C805.52,83.73 799.35,79.85 792.99,76.03 C764.65,58.96 735.70,44.89 705.78,33.69 ZM 40.45 311.53 C20.42,358.59 7.81,408.77 2.84,461.50 C7.83,408.52 20.33,358.64 40.45,311.53 ZM 455.45 4.50 C427.33,7.88 399.74,13.47 372.93,21.14 C400.15,13.31 427.40,7.81 455.45,4.50 ZM 930.53 398.24 C926.15,400.16 919.02,404.31 914.41,407.71 C918.87,404.10 924.26,400.93 930.53,398.24 ZM 976.18 550.30 C980.28,553.33 982.51,556.59 984.60,561.55 C985.15,562.87 985.57,564.68 985.84,566.74 C985.37,564.14 984.62,561.70 983.59,559.60 C981.63,555.58 979.53,552.83 976.18,550.30 ZM 860.58 309.45 C859.63,316.03 860.28,322.96 862.44,329.68 C860.90,325.10 860.02,320.43 860.02,316.00 C860.02,313.87 860.22,311.66 860.58,309.45 ZM 961.35 602.76 C960.23,603.71 960.00,605.77 960.00,610.08 L 960.00 603.16 ZM 152.00 149.11 C131.45,169.19 112.51,191.07 95.43,214.62 C92.81,218.23 90.25,221.86 87.73,225.52 C106.61,197.95 128.16,172.37 152.00,149.11 ZM 971.46 410.32 C972.88,410.69 973.94,410.94 974.16,410.96 C974.41,410.97 975.69,411.83 977.36,413.07 C975.74,412.05 974.00,411.20 972.15,410.55 C971.93,410.47 971.69,410.40 971.46,410.32 ZM 870.72 197.72 C869.80,192.43 866.35,187.89 856.61,178.56 C866.45,187.93 869.96,192.42 870.72,197.72 ZM 983.41 418.28 C987.16,422.41 989.58,427.61 990.99,434.40 C989.65,427.96 987.05,422.48 983.41,418.28 ZM 985.70 581.13 C985.42,582.86 985.04,584.37 984.56,585.53 C983.74,587.51 982.85,589.28 981.89,590.85 C982.53,589.75 983.15,588.54 983.77,587.19 C984.61,585.35 985.25,583.30 985.70,581.13 ZM 585.56 4.61 C600.34,6.39 614.95,8.77 629.37,11.75 C615.04,8.81 600.45,6.43 585.56,4.61 ZM 743.53 158.72 C743.10,156.84 742.18,154.98 740.64,152.93 C741.52,154.01 742.17,154.94 742.47,155.58 C742.95,156.60 743.31,157.65 743.53,158.72 ZM 877.25 352.37 C879.29,354.03 881.56,355.57 883.86,356.87 C883.59,356.72 883.32,356.58 883.04,356.43 C881.05,355.34 879.11,353.97 877.25,352.37 ZM 933.97 484.47 C931.51,484.07 929.06,483.41 926.67,482.53 C929.23,483.37 931.86,484.07 933.97,484.47 ZM 979.35 477.13 C978.63,476.46 977.99,474.92 976.81,471.83 C977.81,474.45 978.65,476.19 979.35,477.13 ZM 919.01 529.89 C915.87,531.49 912.91,533.41 910.25,535.58 C913.00,533.31 916.01,531.34 919.01,529.89 ZM 910.25 535.58 C906.63,538.56 903.46,542.07 901.37,545.63 C903.50,542.00 906.58,538.56 910.25,535.58 ZM 948.87 335.47 C948.08,334.79 947.22,333.95 946.29,332.94 L 944.86 331.41 L 946.74 333.37 C947.54,334.21 948.25,334.91 948.87,335.47 ZM 883.19 277.53 C881.45,278.86 879.68,280.32 877.96,281.83 C879.68,280.29 881.42,278.86 883.19,277.53 ZM 826.11 212.82 C826.93,214.27 827.26,215.57 827.53,217.38 C827.26,215.58 826.89,214.23 826.11,212.82 ZM 827.46 227.10 C826.85,233.83 825.31,242.93 822.91,254.00 C825.31,242.96 826.84,233.83 827.46,227.10 ZM 759.04 110.58 C758.20,108.84 757.10,107.24 755.73,105.76 C757.11,107.22 758.18,108.81 759.04,110.58 ZM 683.56 136.47 C683.21,137.24 682.87,138.16 682.56,139.17 C682.88,138.11 683.21,137.21 683.56,136.47 ZM 681.59 143.31 C681.77,142.14 682.03,140.96 682.37,139.79 C682.04,140.96 681.78,142.14 681.59,143.31 ZM 904.74 463.84 C897.78,450.00 897.10,433.12 903.02,421.45 C897.10,433.19 897.78,449.99 904.74,463.84 Z" fill="rgb(205,95,38)"/>
<path d="M 0.00 504.50 L 0.00 0.00 L 252.25 0.16 C390.99,0.25 502.92,0.47 501.00,0.64 C499.08,0.82 490.52,1.44 482.00,2.03 C437.44,5.09 395.43,13.31 353.00,27.29 C237.79,65.23 139.50,141.85 76.30,243.00 C34.69,309.58 10.32,382.07 2.84,461.50 C1.14,479.63 1.14,529.37 2.84,547.50 C13.68,662.58 61.89,767.40 141.48,848.90 C186.07,894.57 230.00,926.63 285.50,954.02 C353.20,987.42 422.09,1004.67 502.50,1008.35 C505.80,1008.50 394.09,1008.71 254.25,1008.81 L 0.00 1009.00 L 0.00 504.50 ZM 547.00 1007.93 C633.91,1003.36 717.56,978.07 791.00,934.17 C931.40,850.24 1022.69,706.63 1036.47,548.00 C1038.22,527.86 1038.49,485.47 1036.99,466.40 C1030.45,383.30 1002.89,302.88 957.18,233.50 C937.27,203.28 917.66,179.46 890.08,152.00 C801.08,63.38 684.98,10.87 558.50,2.03 C550.25,1.45 541.47,0.84 539.00,0.67 C536.53,0.49 648.01,0.27 786.75,0.17 L 1039.00 0.00 L 1039.00 504.50 L 1039.00 1009.00 L 785.75 1008.85 C646.46,1008.77 539.03,1008.35 547.00,1007.93 ZM 487.50 990.40 C485.30,990.19 478.33,989.53 472.00,988.94 C353.80,977.93 243.17,926.29 160.47,843.54 C82.63,765.65 35.53,669.67 21.89,561.12 C18.10,530.97 17.88,481.36 21.40,451.50 C31.60,365.00 62.62,287.43 114.93,217.63 C154.37,165.00 206.71,118.90 264.86,85.56 C327.88,49.44 392.21,28.88 469.00,20.34 C488.59,18.16 546.83,17.85 566.50,19.83 C653.22,28.53 729.99,55.20 799.50,100.76 C861.80,141.61 916.57,198.27 952.93,259.50 C990.35,322.52 1010.93,384.94 1019.19,460.50 C1020.93,476.44 1020.94,532.50 1019.20,548.50 C1009.24,640.10 979.46,717.12 926.02,789.50 C899.95,824.81 860.60,863.98 823.50,891.55 C775.05,927.56 718.71,955.23 660.00,971.85 C632.87,979.53 607.16,984.46 572.50,988.63 C560.24,990.11 497.95,991.40 487.50,990.40 ZM 627.50 882.02 C684.50,879.35 733.91,868.68 782.00,848.67 C815.22,834.84 855.38,811.88 870.00,798.34 C880.27,788.83 882.53,781.45 877.15,775.01 L 874.30 771.59 L 869.92 772.91 C867.51,773.63 853.83,779.83 839.52,786.69 C808.92,801.36 796.03,806.97 791.09,807.74 L 787.50 808.30 L 789.50 806.03 C790.60,804.79 797.80,799.02 805.50,793.22 C834.89,771.09 860.87,749.30 870.98,738.30 C877.66,731.04 883.72,720.32 882.68,717.61 C881.47,714.47 876.92,713.57 862.50,713.66 C850.00,713.73 837.43,715.36 831.33,717.70 C828.90,718.64 830.95,715.43 837.41,708.19 C840.47,704.76 843.25,700.84 843.60,699.48 C845.99,689.92 834.99,682.39 819.88,683.23 C806.48,683.98 796.42,690.04 765.52,715.98 C723.82,751.00 698.38,764.83 663.19,771.64 C651.35,773.93 621.23,773.90 608.00,771.60 C583.07,767.25 517.26,744.95 524.35,743.25 C526.99,742.63 544.80,744.81 556.00,747.13 C570.48,750.13 584.02,750.64 593.48,748.54 C619.26,742.80 652.00,713.45 655.55,692.90 L 656.16 689.31 L 638.83 688.70 C610.29,687.69 599.68,685.29 578.16,674.96 C557.70,665.13 547.37,658.25 514.64,632.71 C492.52,615.45 470.73,609.08 418.00,604.47 C347.64,598.33 309.73,588.22 278.01,567.14 C266.56,559.54 249.82,542.79 242.37,531.50 C231.02,514.28 223.70,496.38 219.52,475.60 C214.74,451.88 214.48,445.86 214.73,362.75 C214.89,311.95 214.63,285.00 213.98,285.00 C212.12,285.00 203.00,298.47 198.06,308.50 C180.39,344.38 164.07,410.32 157.97,470.50 C156.58,484.19 156.58,514.21 157.96,527.50 C160.70,553.83 168.01,587.20 176.37,611.50 C195.28,666.46 225.18,719.82 255.90,753.46 C276.02,775.48 315.40,807.51 341.91,823.42 C363.93,836.63 379.17,843.34 412.71,854.58 C471.01,874.12 502.56,880.36 551.00,881.94 C584.70,883.04 605.31,883.06 627.50,882.02 ZM 758.49 699.49 C776.85,695.60 795.94,686.79 805.60,677.76 C809.12,674.47 812.00,671.09 812.00,670.25 C812.00,667.85 805.57,669.20 794.87,673.86 C782.21,679.37 778.98,679.95 761.00,679.96 C738.56,679.97 727.87,676.80 716.41,666.72 C709.11,660.29 708.00,657.12 708.00,642.75 C708.00,629.69 709.37,622.16 713.11,614.72 C730.59,579.90 781.93,570.12 834.50,591.57 C846.60,596.51 849.62,597.35 856.75,597.77 L 865.00 598.25 L 865.00 591.49 C865.00,582.76 860.82,562.57 856.35,549.65 C851.55,535.83 836.66,499.26 832.29,490.58 C817.09,460.40 791.18,430.81 763.89,412.46 C748.40,402.05 713.82,386.14 686.00,376.64 C667.04,370.17 641.55,363.76 624.00,361.05 C619.88,360.41 615.20,359.64 613.60,359.33 L 610.71 358.78 L 611.36 347.14 C611.72,340.74 612.44,331.00 612.97,325.50 C617.18,281.64 608.43,239.53 588.01,205.44 C563.05,163.76 526.77,135.98 487.46,128.46 C459.19,123.05 409.74,127.45 377.50,138.25 C356.65,145.23 331.54,158.21 312.81,171.70 C271.84,201.20 242.99,245.64 234.87,291.74 C230.87,314.43 231.96,346.17 237.58,371.00 C245.77,407.15 265.59,443.15 286.66,460.14 C296.21,467.84 297.80,468.85 312.83,476.88 C331.24,486.71 337.11,491.50 341.51,500.29 C343.43,504.13 345.00,508.13 345.00,509.18 C345.00,511.64 351.44,528.89 355.02,536.01 C363.51,552.90 376.31,563.55 398.89,572.49 C424.56,582.66 454.16,582.66 481.54,572.49 C514.67,560.19 547.51,532.63 566.34,501.33 C572.32,491.39 577.95,476.70 576.19,475.62 C573.78,474.13 563.02,482.89 542.14,503.35 C529.69,515.56 515.45,528.57 510.50,532.28 C488.45,548.78 463.98,556.12 446.00,551.63 C427.09,546.90 393.55,523.57 383.03,507.81 C374.95,495.70 377.89,489.74 397.00,479.50 C407.88,473.67 415.00,467.73 415.00,464.48 C415.00,462.70 414.31,462.82 399.00,467.19 C384.57,471.31 372.95,471.95 363.11,469.17 C353.20,466.36 343.27,460.48 332.78,451.21 C311.45,432.34 293.77,405.88 284.87,379.50 L 281.50 369.50 L 281.53 341.50 L 281.56 313.50 L 284.40 305.01 C292.52,280.72 306.48,258.80 327.96,236.61 C352.63,211.11 377.75,194.28 401.11,187.61 C419.12,182.46 456.99,181.92 475.00,186.56 C496.51,192.09 516.40,203.89 536.18,222.85 C562.66,248.22 580.01,278.93 585.15,309.50 C587.12,321.16 586.67,375.64 584.50,389.28 C583.26,397.09 583.16,399.97 584.04,402.10 C585.94,406.68 594.26,409.07 615.00,410.98 C653.91,414.57 673.75,419.71 703.50,433.94 C723.97,443.73 736.42,451.61 755.50,466.85 C783.76,489.43 811.96,518.29 827.65,540.71 C837.25,554.43 845.89,574.71 842.92,576.55 C841.30,577.55 830.06,573.95 816.31,568.04 C794.34,558.58 795.57,558.77 756.84,558.94 L 723.18 559.08 L 720.21 551.29 C718.58,547.01 716.68,541.70 715.98,539.50 C711.07,523.90 696.66,504.02 683.63,494.88 C677.13,490.31 669.19,487.00 664.75,487.00 C661.94,487.00 663.00,489.52 672.71,505.88 C683.33,523.76 687.50,532.72 688.96,540.75 C691.45,554.52 686.23,563.94 672.26,570.91 C660.48,576.78 657.73,577.14 618.00,578.03 C582.30,578.83 569.56,580.04 566.70,582.90 C565.33,584.27 574.04,593.16 579.87,596.33 C590.71,602.23 607.94,607.16 640.00,613.53 C656.83,616.88 663.07,619.18 666.76,623.38 C668.35,625.19 671.60,631.58 673.99,637.58 C683.00,660.25 694.36,680.11 703.18,688.65 C709.11,694.39 715.03,697.74 722.50,699.59 C729.54,701.34 750.03,701.28 758.49,699.49 ZM 969.32 615.56 C978.52,613.81 983.91,611.15 989.36,605.68 C995.26,599.77 998.76,593.27 1000.50,585.01 C1006.34,557.24 993.74,536.70 965.59,528.08 C956.92,525.43 937.79,524.23 930.18,525.87 C918.41,528.39 906.80,536.36 901.37,545.63 C896.21,554.44 893.25,569.50 894.92,578.51 C897.17,590.68 903.11,599.57 913.30,606.03 C920.86,610.81 923.24,610.43 926.55,603.91 C927.90,601.25 929.00,598.64 929.00,598.13 C929.00,597.61 927.05,596.05 924.67,594.65 C910.45,586.32 906.35,570.73 914.25,555.04 C917.91,547.78 923.52,542.80 930.29,540.83 C939.90,538.02 957.96,540.43 968.95,545.97 C977.05,550.07 980.49,553.27 983.59,559.60 C987.32,567.22 987.40,579.26 983.77,587.19 C980.12,595.16 976.45,598.28 967.60,600.91 L 960.00 603.16 L 960.00 610.08 C960.00,613.89 960.41,617.00 960.91,617.00 C961.41,617.00 965.20,616.35 969.32,615.56 ZM 943.01 483.25 C943.01,482.29 943.30,479.19 943.64,476.36 L 944.25 471.22 L 939.88 470.50 C928.71,468.68 919.79,461.69 916.58,452.27 C915.71,449.72 915.00,444.46 915.00,440.57 C915.00,424.06 925.55,413.35 945.74,409.38 C954.45,407.67 965.33,408.15 972.15,410.55 C981.75,413.94 988.53,422.53 990.99,434.40 C993.50,446.60 988.78,456.80 977.44,463.65 L 974.38 465.50 L 976.77 471.75 C979.03,477.63 979.33,477.96 981.84,477.36 C989.50,475.52 998.75,467.39 1003.27,458.52 C1011.13,443.09 1006.27,419.11 992.67,406.25 C982.08,396.24 972.46,393.39 952.19,394.27 C945.00,394.58 937.77,395.46 935.50,396.28 C919.55,402.08 908.53,410.61 903.06,421.39 C897.10,433.13 897.76,449.96 904.74,463.84 C910.69,475.69 925.11,484.62 938.75,484.91 C942.16,484.98 943.00,484.65 943.01,483.25 ZM 490.65 423.07 C495.47,420.88 502.15,413.00 505.69,405.33 C508.26,399.76 510.77,389.44 509.80,388.47 C508.10,386.77 471.80,408.27 466.54,414.09 C462.10,419.01 462.55,419.91 471.03,422.96 C477.96,425.45 485.31,425.49 490.65,423.07 ZM 912.00 360.93 C915.58,360.36 918.82,359.57 919.21,359.18 C919.60,358.80 919.17,355.67 918.25,352.24 C916.37,345.23 916.15,345.13 907.03,347.09 C887.22,351.34 869.11,325.03 878.40,305.50 C882.59,296.68 895.54,286.00 908.36,280.80 C914.28,278.39 924.23,277.96 930.66,279.82 C936.07,281.39 943.81,288.42 947.54,295.15 C950.14,299.86 950.50,301.48 950.50,308.67 C950.50,316.65 950.40,317.00 946.36,322.72 L 942.22 328.59 L 946.29 332.94 C952.18,339.26 954.90,339.27 959.50,333.00 C965.24,325.18 967.28,318.13 966.80,307.84 C966.44,300.25 965.92,298.21 962.52,291.34 C946.41,258.72 906.26,255.00 876.31,283.35 C871.68,287.73 866.76,293.26 865.36,295.64 C862.08,301.24 860.02,309.09 860.02,316.00 C860.02,331.29 870.42,349.56 883.04,356.43 C892.75,361.71 900.11,362.86 912.00,360.93 ZM 834.89 277.43 C835.50,277.81 836.00,277.90 836.00,277.64 C836.00,277.38 837.61,269.14 839.58,259.33 C841.68,248.91 843.23,238.07 843.33,233.25 C843.42,228.71 843.56,225.00 843.62,225.00 C843.69,225.00 845.79,225.91 848.29,227.01 C866.08,234.88 888.35,220.45 888.42,201.00 C888.45,191.63 885.19,187.06 862.69,165.00 C847.78,150.38 842.18,145.49 840.30,145.45 C838.34,145.41 834.93,148.47 824.66,159.45 C817.44,167.18 804.55,180.70 796.02,189.50 C787.48,198.30 777.81,208.32 774.53,211.75 L 768.56 218.00 L 773.50 222.35 C776.65,225.13 779.09,226.53 780.25,226.23 C781.24,225.97 788.32,219.24 795.98,211.27 L 809.91 196.80 L 812.70 198.79 C814.24,199.89 818.05,203.46 821.16,206.73 C825.88,211.68 826.95,213.47 827.54,217.44 C828.42,223.27 826.79,236.12 822.91,254.00 L 819.98 267.50 L 826.24 273.14 C829.76,276.30 832.78,278.33 833.14,277.76 C833.49,277.20 834.28,277.05 834.89,277.43 ZM 737.02 186.61 C744.39,184.84 748.33,182.70 752.99,177.89 C758.41,172.30 760.33,166.77 759.84,158.10 C759.49,151.90 758.99,150.45 755.47,145.36 C753.29,142.20 748.12,136.74 744.00,133.23 C725.91,117.82 722.07,113.97 720.88,110.00 C719.44,105.20 720.84,101.15 725.21,97.48 C728.66,94.57 733.33,94.27 739.87,96.55 C750.09,100.11 756.10,104.51 759.04,110.58 C761.09,114.82 761.19,118.72 759.41,125.10 C759.08,126.28 760.44,127.27 764.56,128.85 C772.40,131.85 774.54,131.09 776.05,124.80 C779.55,110.19 771.07,96.05 753.64,87.50 C742.47,82.01 729.25,80.67 720.19,84.12 C711.59,87.39 704.00,98.35 704.00,107.50 C704.00,117.36 708.53,123.25 732.63,144.69 C741.87,152.91 744.49,157.32 743.68,163.34 C743.28,166.33 742.15,168.32 739.37,170.95 C735.90,174.22 735.12,174.50 729.55,174.48 C724.90,174.47 721.99,173.75 716.95,171.38 C701.77,164.23 695.43,153.61 698.41,140.34 C699.10,137.26 699.00,137.14 693.68,135.15 C686.08,132.31 684.34,133.02 682.37,139.79 C677.84,155.40 687.40,172.11 706.35,181.69 C718.25,187.71 726.74,189.07 737.02,186.61 ZM 726.53 810.14 C735.87,801.36 748.60,789.96 772.03,769.41 C787.14,756.17 804.81,740.53 811.30,734.66 C817.79,728.80 823.36,724.00 823.67,724.00 C824.42,724.00 821.60,728.30 816.45,735.00 C808.52,745.31 778.35,776.50 768.07,785.01 C749.83,800.11 731.46,812.00 726.38,812.00 C724.67,812.00 724.67,811.89 726.53,810.14 ZM 851.50 213.31 C847.19,211.01 843.84,208.12 831.77,196.26 L 821.03 185.73 L 831.12 174.87 L 841.20 164.02 L 854.08 176.15 C868.08,189.34 871.00,193.68 871.00,201.30 C871.00,205.44 870.51,206.47 866.67,210.48 C862.95,214.36 861.79,214.99 858.42,214.96 C856.26,214.94 853.15,214.20 851.50,213.31 Z" fill="rgb(254,254,253)"/>
</g>
</svg>